<mxfile host="app.diagrams.net" modified="2022-03-24T12:33:42.440Z" agent="5.0 (Windows NT 10.0; Win64; x64) AppleWebKit/537.36 (KHTML, like Gecko) Chrome/99.0.4844.74 Safari/537.36 Edg/99.0.1150.46" etag="VO4tgOY18lvFyfQBAib3" version="17.2.1" type="github">
  <diagram id="MNGBG77SHXq03AeOEqHz" name="Page-1">
    <mxGraphModel dx="1038" dy="579" grid="1" gridSize="10" guides="1" tooltips="1" connect="1" arrows="1" fold="1" page="1" pageScale="1" pageWidth="827" pageHeight="1169" math="0" shadow="0">
      <root>
        <mxCell id="0" />
        <mxCell id="1" parent="0" />
        <mxCell id="Mx9EeLZJ0s0QfuGkzZqN-1" value="" style="rounded=0;whiteSpace=wrap;html=1;" vertex="1" parent="1">
          <mxGeometry x="120" y="250" width="120" height="60" as="geometry" />
        </mxCell>
        <mxCell id="Mx9EeLZJ0s0QfuGkzZqN-2" value="" style="endArrow=classic;html=1;rounded=0;" edge="1" parent="1">
          <mxGeometry width="50" height="50" relative="1" as="geometry">
            <mxPoint x="260" y="270" as="sourcePoint" />
            <mxPoint x="480" y="270" as="targetPoint" />
          </mxGeometry>
        </mxCell>
        <mxCell id="Mx9EeLZJ0s0QfuGkzZqN-3" value="" style="endArrow=none;html=1;rounded=0;" edge="1" parent="1">
          <mxGeometry width="50" height="50" relative="1" as="geometry">
            <mxPoint x="810" y="259" as="sourcePoint" />
            <mxPoint x="690" y="259" as="targetPoint" />
            <Array as="points">
              <mxPoint x="800" y="259" />
              <mxPoint x="770" y="259" />
            </Array>
          </mxGeometry>
        </mxCell>
        <mxCell id="Mx9EeLZJ0s0QfuGkzZqN-4" value="" style="endArrow=none;html=1;rounded=0;" edge="1" parent="1">
          <mxGeometry width="50" height="50" relative="1" as="geometry">
            <mxPoint x="810" y="279.5" as="sourcePoint" />
            <mxPoint x="690" y="279.5" as="targetPoint" />
            <Array as="points">
              <mxPoint x="800" y="280" />
            </Array>
          </mxGeometry>
        </mxCell>
        <mxCell id="Mx9EeLZJ0s0QfuGkzZqN-5" value="注册信息/第三方网站账号&lt;br&gt;" style="text;html=1;strokeColor=none;fillColor=none;align=center;verticalAlign=middle;whiteSpace=wrap;rounded=0;" vertex="1" parent="1">
          <mxGeometry x="310" y="220" width="120" height="40" as="geometry" />
        </mxCell>
        <mxCell id="Mx9EeLZJ0s0QfuGkzZqN-6" value="用户" style="text;html=1;strokeColor=none;fillColor=none;align=center;verticalAlign=middle;whiteSpace=wrap;rounded=0;" vertex="1" parent="1">
          <mxGeometry x="130" y="260" width="100" height="40" as="geometry" />
        </mxCell>
        <mxCell id="Mx9EeLZJ0s0QfuGkzZqN-7" value="用户信息数据库&lt;br&gt;" style="text;html=1;strokeColor=none;fillColor=none;align=center;verticalAlign=middle;whiteSpace=wrap;rounded=0;" vertex="1" parent="1">
          <mxGeometry x="680" y="210" width="140" height="40" as="geometry" />
        </mxCell>
        <mxCell id="Mx9EeLZJ0s0QfuGkzZqN-8" value="" style="endArrow=classic;html=1;rounded=0;" edge="1" parent="1">
          <mxGeometry width="50" height="50" relative="1" as="geometry">
            <mxPoint x="180" y="240" as="sourcePoint" />
            <mxPoint x="180" y="160" as="targetPoint" />
          </mxGeometry>
        </mxCell>
        <mxCell id="Mx9EeLZJ0s0QfuGkzZqN-10" value="用户画像数据&lt;br&gt;" style="text;html=1;strokeColor=none;fillColor=none;align=center;verticalAlign=middle;whiteSpace=wrap;rounded=0;" vertex="1" parent="1">
          <mxGeometry x="190" y="180" width="60" height="30" as="geometry" />
        </mxCell>
        <mxCell id="Mx9EeLZJ0s0QfuGkzZqN-11" value="推荐题目 3.X" style="rounded=1;whiteSpace=wrap;html=1;" vertex="1" parent="1">
          <mxGeometry x="120" y="100" width="120" height="60" as="geometry" />
        </mxCell>
        <mxCell id="Mx9EeLZJ0s0QfuGkzZqN-12" value="" style="endArrow=classic;html=1;rounded=0;" edge="1" parent="1" target="Mx9EeLZJ0s0QfuGkzZqN-13">
          <mxGeometry width="50" height="50" relative="1" as="geometry">
            <mxPoint x="180" y="320" as="sourcePoint" />
            <mxPoint x="180" y="400" as="targetPoint" />
          </mxGeometry>
        </mxCell>
        <mxCell id="Mx9EeLZJ0s0QfuGkzZqN-13" value="搜索题目 3.Y" style="rounded=1;whiteSpace=wrap;html=1;" vertex="1" parent="1">
          <mxGeometry x="120" y="390" width="120" height="60" as="geometry" />
        </mxCell>
        <mxCell id="Mx9EeLZJ0s0QfuGkzZqN-14" value="题目数据" style="text;html=1;strokeColor=none;fillColor=none;align=center;verticalAlign=middle;whiteSpace=wrap;rounded=0;" vertex="1" parent="1">
          <mxGeometry x="190" y="340" width="60" height="30" as="geometry" />
        </mxCell>
        <mxCell id="Mx9EeLZJ0s0QfuGkzZqN-15" value="" style="endArrow=classic;html=1;rounded=0;" edge="1" parent="1" source="Mx9EeLZJ0s0QfuGkzZqN-17">
          <mxGeometry width="50" height="50" relative="1" as="geometry">
            <mxPoint x="480" y="380" as="sourcePoint" />
            <mxPoint x="710" y="300" as="targetPoint" />
          </mxGeometry>
        </mxCell>
        <mxCell id="Mx9EeLZJ0s0QfuGkzZqN-16" value="" style="endArrow=none;html=1;rounded=0;" edge="1" parent="1" target="Mx9EeLZJ0s0QfuGkzZqN-17">
          <mxGeometry width="50" height="50" relative="1" as="geometry">
            <mxPoint x="260" y="310" as="sourcePoint" />
            <mxPoint x="340" y="390" as="targetPoint" />
          </mxGeometry>
        </mxCell>
        <mxCell id="Mx9EeLZJ0s0QfuGkzZqN-17" value="注销账号" style="text;html=1;strokeColor=none;fillColor=none;align=center;verticalAlign=middle;whiteSpace=wrap;rounded=0;" vertex="1" parent="1">
          <mxGeometry x="360" y="340" width="120" height="30" as="geometry" />
        </mxCell>
        <mxCell id="Mx9EeLZJ0s0QfuGkzZqN-18" value="" style="endArrow=classic;html=1;rounded=0;" edge="1" parent="1" target="Mx9EeLZJ0s0QfuGkzZqN-19">
          <mxGeometry width="50" height="50" relative="1" as="geometry">
            <mxPoint x="250" y="240" as="sourcePoint" />
            <mxPoint x="370" y="150" as="targetPoint" />
          </mxGeometry>
        </mxCell>
        <mxCell id="Mx9EeLZJ0s0QfuGkzZqN-19" value="虚拟赛 3.Z" style="rounded=1;whiteSpace=wrap;html=1;" vertex="1" parent="1">
          <mxGeometry x="370" y="100" width="120" height="60" as="geometry" />
        </mxCell>
        <mxCell id="Mx9EeLZJ0s0QfuGkzZqN-20" value="用户题单" style="text;strokeColor=none;fillColor=none;align=left;verticalAlign=middle;spacingLeft=4;spacingRight=4;overflow=hidden;points=[[0,0.5],[1,0.5]];portConstraint=eastwest;rotatable=0;" vertex="1" parent="1">
          <mxGeometry x="270" y="160" width="80" height="30" as="geometry" />
        </mxCell>
        <mxCell id="Mx9EeLZJ0s0QfuGkzZqN-21" value="验证第三方网站账号" style="rounded=1;whiteSpace=wrap;html=1;" vertex="1" parent="1">
          <mxGeometry x="490" y="230" width="120" height="60" as="geometry" />
        </mxCell>
        <mxCell id="Mx9EeLZJ0s0QfuGkzZqN-22" value="" style="endArrow=classic;html=1;rounded=0;" edge="1" parent="1">
          <mxGeometry width="50" height="50" relative="1" as="geometry">
            <mxPoint x="620" y="260" as="sourcePoint" />
            <mxPoint x="690" y="260" as="targetPoint" />
          </mxGeometry>
        </mxCell>
        <mxCell id="Mx9EeLZJ0s0QfuGkzZqN-23" value="成功" style="text;html=1;strokeColor=none;fillColor=none;align=center;verticalAlign=middle;whiteSpace=wrap;rounded=0;" vertex="1" parent="1">
          <mxGeometry x="620" y="225" width="60" height="30" as="geometry" />
        </mxCell>
      </root>
    </mxGraphModel>
  </diagram>
</mxfile>
